<svg width="35" height="35" viewBox="0 0 35 35" fill="none" xmlns="http://www.w3.org/2000/svg">
<rect width="34.4286" height="34.4286" rx="8" fill="#35AD5A"/>
<path fill-rule="evenodd" clip-rule="evenodd" d="M24.8928 17.2142C24.8928 21.455 21.455 24.8928 17.2142 24.8928C12.9735 24.8928 9.53564 21.455 9.53564 17.2142C9.53564 12.9735 12.9735 9.53564 17.2142 9.53564C21.455 9.53564 24.8928 12.9735 24.8928 17.2142ZM20.3089 14.8874C20.5338 15.1123 20.5338 15.4769 20.3089 15.7018L16.4696 19.5411C16.2447 19.766 15.8801 19.766 15.6552 19.5411L14.1195 18.0054C13.8946 17.7805 13.8946 17.4158 14.1195 17.1909C14.3444 16.966 14.709 16.966 14.9339 17.1909L16.0624 18.3194L17.7785 16.6034L19.4945 14.8874C19.7194 14.6625 20.084 14.6625 20.3089 14.8874Z" fill="white"/>
</svg>
