<svg width="35" height="35" viewBox="0 0 35 35" fill="none" xmlns="http://www.w3.org/2000/svg">
<rect y="0.428467" width="34.4286" height="34.4286" rx="8" fill="#5B77FD"/>
<path fill-rule="evenodd" clip-rule="evenodd" d="M24.8928 17.6427C24.8928 21.8834 21.455 25.3213 17.2142 25.3213C12.9735 25.3213 9.53564 21.8834 9.53564 17.6427C9.53564 13.4019 12.9735 9.96411 17.2142 9.96411C21.455 9.96411 24.8928 13.4019 24.8928 17.6427ZM17.2142 22.0579C17.5323 22.0579 17.7901 21.8 17.7901 21.482V16.8748C17.7901 16.5568 17.5323 16.2989 17.2142 16.2989C16.8962 16.2989 16.6383 16.5568 16.6383 16.8748V21.482C16.6383 21.8 16.8962 22.0579 17.2142 22.0579ZM17.2142 13.8034C17.6383 13.8034 17.9821 14.1472 17.9821 14.5713C17.9821 14.9953 17.6383 15.3391 17.2142 15.3391C16.7901 15.3391 16.4464 14.9953 16.4464 14.5713C16.4464 14.1472 16.7901 13.8034 17.2142 13.8034Z" fill="white"/>
</svg>
