<svg width="35" height="35" viewBox="0 0 35 35" fill="none" xmlns="http://www.w3.org/2000/svg">
<rect y="0.2854" width="34.4286" height="34.4286" rx="8" fill="#FE9A34"/>
<path fill-rule="evenodd" clip-rule="evenodd" d="M24.8928 17.4996C24.8928 13.2589 21.455 9.82104 17.2142 9.82104C12.9735 9.82104 9.53564 13.2589 9.53564 17.4996C9.53564 21.7404 12.9735 25.1782 17.2142 25.1782C21.455 25.1782 24.8928 21.7404 24.8928 17.4996ZM17.2142 13.0844C17.5323 13.0844 17.7901 13.3423 17.7901 13.6603V18.2675C17.7901 18.5855 17.5323 18.8434 17.2142 18.8434C16.8962 18.8434 16.6383 18.5855 16.6383 18.2675V13.6603C16.6383 13.3423 16.8962 13.0844 17.2142 13.0844ZM17.2142 21.3389C17.6383 21.3389 17.9821 20.9951 17.9821 20.571C17.9821 20.147 17.6383 19.8032 17.2142 19.8032C16.7901 19.8032 16.4464 20.147 16.4464 20.571C16.4464 20.9951 16.7901 21.3389 17.2142 21.3389Z" fill="white"/>
</svg>
