<svg width="35" height="36" viewBox="0 0 35 36" fill="none" xmlns="http://www.w3.org/2000/svg">
<rect y="0.856934" width="34.4286" height="34.4286" rx="8" fill="#EB3333"/>
<path fill-rule="evenodd" clip-rule="evenodd" d="M24.8928 18.0711C24.8928 22.3119 21.455 25.7497 17.2142 25.7497C12.9735 25.7497 9.53564 22.3119 9.53564 18.0711C9.53564 13.8304 12.9735 10.3926 17.2142 10.3926C21.455 10.3926 24.8928 13.8304 24.8928 18.0711ZM14.8873 15.7443C15.1122 15.5194 15.4769 15.5194 15.7018 15.7443L17.2142 17.2567L18.7266 15.7443C18.9515 15.5194 19.3161 15.5194 19.541 15.7443C19.7659 15.9692 19.7659 16.3338 19.541 16.5587L18.0286 18.0711L19.541 19.5835C19.7659 19.8084 19.7659 20.1731 19.541 20.398C19.3161 20.6229 18.9515 20.6229 18.7266 20.398L17.2142 18.8856L15.7018 20.398C15.4769 20.6229 15.1122 20.6229 14.8873 20.398C14.6624 20.1731 14.6624 19.8085 14.8873 19.5836L16.3998 18.0711L14.8873 16.5587C14.6624 16.3338 14.6624 15.9692 14.8873 15.7443Z" fill="white"/>
</svg>
