<svg width="32" height="32" viewBox="0 0 32 32" fill="none" xmlns="http://www.w3.org/2000/svg">
    <path fill-rule="evenodd" clip-rule="evenodd" d="M27.64 9.49335L27.4533 9.16002C27.2125 8.75694 26.8729 8.42193 26.4667 8.18669L17.52 3.02669C17.1149 2.79169 16.6551 2.66751 16.1867 2.66669H15.8C15.3316 2.66751 14.8717 2.79169 14.4667 3.02669L5.52 8.20002C5.11596 8.4337 4.78035 8.76931 4.54667 9.17335L4.36 9.50669C4.125 9.91181 4.00083 10.3717 4 10.84V21.1734C4.00083 21.6418 4.125 22.1016 4.36 22.5067L4.54667 22.84C4.78639 23.2393 5.12065 23.5736 5.52 23.8134L14.48 28.9733C14.8831 29.2132 15.3443 29.3377 15.8133 29.3333H16.1867C16.6551 29.3326 17.1149 29.2084 17.52 28.9733L26.4667 23.8C26.8747 23.5716 27.2116 23.2347 27.44 22.8267L27.64 22.4934C27.8721 22.0871 27.9961 21.628 28 21.16V10.8267C27.9992 10.3583 27.8751 9.89847 27.64 9.49335ZM15.8 5.33335H16.1867L24 9.84002L16 14.4534L8 9.84002L15.8 5.33335ZM17.3333 26L25.1333 21.4934L25.3333 21.16V12.1467L17.3333 16.7734V26Z" fill="white"/>
</svg>
