<svg width="24" height="24" viewBox="0 0 24 24" fill="none" xmlns="http://www.w3.org/2000/svg">
<path d="M22 7.99851C21.9998 7.82003 21.9519 7.64486 21.8611 7.49118C21.7704 7.33749 21.6402 7.21089 21.484 7.12451L12.462 2.12451C12.3138 2.04283 12.1473 2 11.978 2C11.8088 2 11.6422 2.04283 11.494 2.12451L2.516 7.08451C2.36004 7.17087 2.23 7.29736 2.13935 7.45087C2.0487 7.60439 2.00073 7.77934 2.00043 7.95762C2.00012 8.1359 2.04748 8.31102 2.13761 8.46485C2.22773 8.61867 2.35734 8.74561 2.513 8.83251L11.535 13.8725C11.6835 13.956 11.851 13.9999 12.0214 14.0001C12.1917 14.0002 12.3593 13.9567 12.508 13.8735L21.486 8.8735C21.642 8.78678 21.7719 8.65991 21.8622 8.50605C21.9526 8.35219 22.0002 8.17695 22 7.99851ZM12.023 11.8535L5.06 7.96451L11.977 4.14251L18.941 8.0015L12.023 11.8535Z" fill="white"/>
<path d="M20.515 11.1255L12 15.8555L3.48498 11.1255L2.51398 12.8735L11.514 17.8735C11.6625 17.956 11.8296 17.9993 11.9995 17.9993C12.1694 17.9993 12.3365 17.956 12.485 17.8735L21.485 12.8735L20.515 11.1255Z" fill="white"/>
<path d="M20.515 15.1255L12 19.8555L3.48498 15.1255L2.51398 16.8735L11.514 21.8735C11.6625 21.956 11.8296 21.9993 11.9995 21.9993C12.1694 21.9993 12.3365 21.956 12.485 21.8735L21.485 16.8735L20.515 15.1255Z" fill="white"/>
</svg>
