<svg viewBox="0 0 26 26" fill="none" xmlns="http://www.w3.org/2000/svg">
<path fill-rule="evenodd" clip-rule="evenodd" d="M16.8318 1.79769C18.6181 1.54251 20.2162 2.92856 20.2162 4.73293V6.21707C21.4986 6.89498 22.3726 8.24241 22.3726 9.79396V20.5759C22.3726 22.8089 20.5624 24.6191 18.3293 24.6191H7.54738C5.31437 24.6191 3.50415 22.8089 3.50415 20.5759V5.48117C3.50415 5.47115 3.50433 5.46117 3.50469 5.45123C3.50433 5.43572 3.50415 5.42015 3.50415 5.40455C3.50415 4.42743 4.22264 3.599 5.18994 3.46082L16.8318 1.79769ZM5.12144 7.36802V20.5759C5.12144 21.9157 6.20757 23.0019 7.54738 23.0019H18.3293C19.6691 23.0019 20.7553 21.9157 20.7553 20.5759V9.79396C20.7553 8.45415 19.6691 7.36802 18.3293 7.36802H5.12144ZM5.46762 5.75072H18.5989V4.73293C18.5989 3.91276 17.8725 3.28274 17.0605 3.39873L5.41866 5.06186C5.24812 5.08622 5.12144 5.23228 5.12144 5.40455C5.12144 5.59574 5.27643 5.75072 5.46762 5.75072ZM7.81693 13.0285C7.81693 12.5819 8.17898 12.2199 8.62558 12.2199H17.2511C17.6977 12.2199 18.0598 12.5819 18.0598 13.0285C18.0598 13.4751 17.6977 13.8372 17.2511 13.8372H8.62558C8.17898 13.8372 7.81693 13.4751 7.81693 13.0285ZM7.81693 16.8022C7.81693 16.3556 8.17898 15.9936 8.62558 15.9936H14.5557C15.0023 15.9936 15.3643 16.3556 15.3643 16.8022C15.3643 17.2488 15.0023 17.6109 14.5557 17.6109H8.62558C8.17898 17.6109 7.81693 17.2488 7.81693 16.8022Z" fill="white"/>
</svg>
