<svg width="72" height="80" viewBox="0 0 72 80" fill="none" xmlns="http://www.w3.org/2000/svg">
    <path d="M60.6359 18.573H44.4199V2.30347C45.1854 2.94629 59.8672 17.6994 60.6359 18.573Z" fill="#DFDFDF" />
    <path
        d="M42.1236 23.167C40.8542 23.167 39.8268 22.1396 39.8268 20.8701V0.800049H7.07333C3.25439 0.800049 0.158203 3.89624 0.158203 7.71517V64.6532C0.158203 68.4583 3.24367 71.5438 7.04883 71.5438H36.9756C35.8317 68.982 35.1963 66.1461 35.1963 63.1633C35.1963 51.7891 44.4465 42.5343 55.8145 42.5343C58.0333 42.5343 60.1694 42.8865 62.1738 43.5372V23.167H42.1236ZM12.0254 10.1315H30.1707C31.4386 10.1315 32.4676 11.1605 32.4676 12.4284C32.4676 13.6978 31.4386 14.7252 30.1707 14.7252H12.0254C10.7575 14.7252 9.72852 13.6978 9.72852 12.4284C9.72852 11.1605 10.7575 10.1315 12.0254 10.1315ZM12.0254 19.319H30.1707C31.4386 19.319 32.4676 20.348 32.4676 21.6159C32.4676 22.8853 31.4386 23.9127 30.1707 23.9127H12.0254C10.7575 23.9127 9.72852 22.8853 9.72852 21.6159C9.72852 20.348 10.7575 19.319 12.0254 19.319ZM38.8223 42.2877H12.0254C10.7575 42.2877 9.72852 41.2603 9.72852 39.9909C9.72852 38.723 10.7575 37.694 12.0254 37.694H38.8223C40.0901 37.694 41.1191 38.723 41.1191 39.9909C41.1191 41.2603 40.0901 42.2877 38.8223 42.2877ZM48.0098 33.1002H12.0254C10.7575 33.1002 9.72852 32.0728 9.72852 30.8034C9.72852 29.5355 10.7575 28.5065 12.0254 28.5065H48.0098C49.2776 28.5065 50.3066 29.5355 50.3066 30.8034C50.3066 32.0728 49.2776 33.1002 48.0098 33.1002Z"
        fill="#DFDFDF" />
    <path
        d="M55.8146 47.1281C46.9793 47.1281 39.79 54.3219 39.79 63.1633C39.79 72.0063 46.9793 79.2001 55.8146 79.2001C64.6529 79.2001 71.8422 72.0063 71.8422 63.1633C71.8422 54.3219 64.6529 47.1281 55.8146 47.1281ZM61.9702 66.0681C62.866 66.9654 62.866 68.4201 61.9702 69.3174C61.0729 70.2132 59.6182 70.2132 58.7209 69.3174L55.8161 66.4126L52.9113 69.3174C52.0155 70.2147 50.5593 70.2132 49.6635 69.3174C48.7662 68.4201 48.7662 66.9654 49.6635 66.0681L52.5683 63.1633L49.6635 60.2585C48.7662 59.3627 48.7662 57.9081 49.6635 57.0107C50.5609 56.1134 52.0155 56.1134 52.9113 57.0107L55.8008 59.9002L55.8161 59.9155L58.7209 57.0107C59.6182 56.1134 61.0729 56.1134 61.9702 57.0107C62.866 57.9081 62.866 59.3627 61.9702 60.2585L59.0654 63.1633L61.9702 66.0681Z"
        fill="#DFDFDF" />
</svg>