<svg width="78" height="85" viewBox="0 0 78 85" fill="none" xmlns="http://www.w3.org/2000/svg">
    <path d="M60.4777 17.7729H44.2617V1.50342C45.0272 2.14624 59.709 16.8994 60.4777 17.7729Z" fill="#DFDFDF" />
    <path
        d="M41.9654 22.367C40.696 22.367 39.6686 21.3395 39.6686 20.0701V0H6.91512C3.09619 0 0 3.09619 0 6.91513V63.8531C0 67.6583 3.08547 70.7438 6.89062 70.7438H36.8174C35.6735 68.182 35.0381 65.3461 35.0381 62.3632C35.0381 50.9891 44.2883 41.7342 55.6563 41.7342C57.8751 41.7342 60.0112 42.0864 62.0156 42.7372V22.367H41.9654ZM11.8672 9.33144H30.0125C31.2804 9.33144 32.3094 10.3604 32.3094 11.6283C32.3094 12.8977 31.2804 13.9252 30.0125 13.9252H11.8672C10.5993 13.9252 9.57031 12.8977 9.57031 11.6283C9.57031 10.3604 10.5993 9.33144 11.8672 9.33144ZM11.8672 18.5189H30.0125C31.2804 18.5189 32.3094 19.5479 32.3094 20.8158C32.3094 22.0852 31.2804 23.1127 30.0125 23.1127H11.8672C10.5993 23.1127 9.57031 22.0852 9.57031 20.8158C9.57031 19.5479 10.5993 18.5189 11.8672 18.5189ZM38.6641 41.4877H11.8672C10.5993 41.4877 9.57031 40.4602 9.57031 39.1908C9.57031 37.9229 10.5993 36.8939 11.8672 36.8939H38.6641C39.9319 36.8939 40.9609 37.9229 40.9609 39.1908C40.9609 40.4602 39.9319 41.4877 38.6641 41.4877ZM47.8516 32.3002H11.8672C10.5993 32.3002 9.57031 31.2727 9.57031 30.0033C9.57031 28.7354 10.5993 27.7064 11.8672 27.7064H47.8516C49.1194 27.7064 50.1484 28.7354 50.1484 30.0033C50.1484 31.2727 49.1194 32.3002 47.8516 32.3002Z"
        fill="#DFDFDF" />
    <path
        d="M55.6564 46.328C46.8211 46.328 39.6318 53.5218 39.6318 62.3633C39.6318 71.2062 46.8211 78.4 55.6564 78.4C64.4947 78.4 71.684 71.2062 71.684 62.3633C71.684 53.5218 64.4947 46.328 55.6564 46.328ZM61.812 65.268C62.7078 66.1653 62.7078 67.62 61.812 68.5173C60.9147 69.4131 59.46 69.4131 58.5627 68.5173L55.6579 65.6126L52.7531 68.5173C51.8573 69.4147 50.4011 69.4131 49.5053 68.5173C48.608 67.62 48.608 66.1653 49.5053 65.268L52.4101 62.3633L49.5053 59.4585C48.608 58.5627 48.608 57.108 49.5053 56.2107C50.4026 55.3134 51.8573 55.3134 52.7531 56.2107L55.6426 59.1002L55.6579 59.1155L58.5627 56.2107C59.46 55.3134 60.9147 55.3134 61.812 56.2107C62.7078 57.108 62.7078 58.5627 61.812 59.4585L58.9072 62.3633L61.812 65.268Z"
        fill="#DFDFDF" />
    <g clip-path="url(#clip0_1612_20174)">
        <path
            d="M77.5239 82.2261L67.834 72.5363C70.1285 69.7331 71.5098 66.1549 71.5098 62.2598C71.5098 53.2995 64.22 46.0098 55.2598 46.0098C46.2995 46.0098 39.0098 53.2995 39.0098 62.2598C39.0098 71.22 46.2995 78.5098 55.2598 78.5098C59.1565 78.5098 62.7348 77.1285 65.5363 74.834L75.2261 84.5239C75.543 84.8408 75.959 85 76.375 85C76.791 85 77.207 84.8408 77.5239 84.5239C78.1593 83.8885 78.1593 82.8615 77.5239 82.2261ZM61.2739 65.9761C61.9093 66.6115 61.9093 67.6385 61.2739 68.2739C60.957 68.5908 60.541 68.75 60.125 68.75C59.709 68.75 59.293 68.5908 58.9761 68.2739L55.25 64.5478L51.5239 68.2739C51.207 68.5908 50.791 68.75 50.375 68.75C49.959 68.75 49.543 68.5908 49.2261 68.2739C48.5908 67.6385 48.5908 66.6115 49.2261 65.9761L52.9523 62.25L49.2261 58.5239C48.5908 57.8885 48.5908 56.8615 49.2261 56.2261C49.8615 55.5908 50.8885 55.5908 51.5239 56.2261L55.25 59.9523L58.9761 56.2261C59.6115 55.5908 60.6385 55.5908 61.2739 56.2261C61.9093 56.8615 61.9093 57.8885 61.2739 58.5239L57.5478 62.25L61.2739 65.9761Z"
            fill="#DFDFDF" />
    </g>
    <defs>
        <clipPath id="clip0_1612_20174">
            <rect width="39" height="39" fill="white" transform="translate(39 46)" />
        </clipPath>
    </defs>
</svg>