<svg width="28" height="28" viewBox="0 0 28 28" fill="none" xmlns="http://www.w3.org/2000/svg">
<path d="M0.410156 5.99936C0.636672 5.99936 0.820313 5.81578 0.820313 5.58921V4.70765C0.820313 4.39101 1.07789 4.13343 1.39453 4.13343H4.58664V5.31386C4.60545 5.85696 5.38831 5.85652 5.40695 5.31386V3.70189C5.41209 3.42675 5.12504 3.22157 4.86686 3.31311H1.39453C0.62557 3.31311 0 3.93868 0 4.70765V5.58921C0 5.81572 0.183641 5.99936 0.410156 5.99936Z" fill="#333333"/>
<path d="M5.06348 19.4871C5.06348 20.0148 5.49283 20.4442 6.02051 20.4442H10.9421C11.4698 20.4442 11.8991 20.0148 11.8991 19.4871V17.998C11.8991 17.4704 11.4698 17.041 10.9421 17.041H6.02051C5.49283 17.041 5.06348 17.4704 5.06348 17.998V19.4871ZM5.88379 17.998C5.88379 17.9226 5.94515 17.8613 6.02051 17.8613H10.9421C11.0175 17.8613 11.0788 17.9226 11.0788 17.998V19.4871C11.0788 19.5625 11.0175 19.6239 10.9421 19.6239H6.02051C5.94515 19.6239 5.88379 19.5625 5.88379 19.4871V17.998Z" fill="#333333"/>
<path d="M5.47457 10.0527H8.35282C8.89593 10.0339 8.89549 9.25107 8.35282 9.23242H5.47457C4.93146 9.25123 4.93185 10.0341 5.47457 10.0527Z" fill="#333333"/>
<path d="M5.47457 11.9668H9.80543C10.3485 11.948 10.3481 11.1651 9.80543 11.1465H5.47457C4.93146 11.1653 4.93185 11.9482 5.47457 11.9668Z" fill="#333333"/>
<path d="M17.871 2.05664H19.483C20.0261 2.03783 20.0257 1.25492 19.483 1.23633H17.871C17.3279 1.25514 17.3284 2.03805 17.871 2.05664Z" fill="#333333"/>
<path d="M22.2734 3.70379V5.31576C22.2922 5.85886 23.0752 5.85843 23.0938 5.31576V3.70379C23.075 3.16069 22.292 3.16113 22.2734 3.70379Z" fill="#333333"/>
<path d="M14.6464 2.05664H16.2583C16.8014 2.03783 16.801 1.25492 16.2583 1.23633H14.6464C14.1033 1.25514 14.1038 2.03805 14.6464 2.05664Z" fill="#333333"/>
<path d="M21.0946 2.0567H21.6988C21.9006 2.0567 22.084 2.15978 22.1895 2.33238C22.3083 2.52739 22.5631 2.58558 22.7534 2.46855C22.9466 2.35042 23.0076 2.09804 22.8895 1.90466C22.6338 1.4862 22.1888 1.23633 21.6989 1.23633H21.0947C20.5516 1.2552 20.552 2.0381 21.0946 2.0567Z" fill="#333333"/>
<path d="M8.1982 2.05664H9.81017C10.3533 2.03783 10.3528 1.25498 9.81017 1.23633H8.1982C7.6551 1.25514 7.65548 2.03805 8.1982 2.05664Z" fill="#333333"/>
<path d="M11.4228 2.05664H13.0347C13.5778 2.03783 13.5774 1.25498 13.0347 1.23633H11.4228C10.8797 1.25514 10.8801 2.03805 11.4228 2.05664Z" fill="#333333"/>
<path d="M4.9281 2.46636C5.11808 2.58377 5.37303 2.52602 5.4922 2.33128C5.59774 2.15929 5.78095 2.05664 5.98225 2.05664H6.58835C7.13145 2.03783 7.13102 1.25498 6.58835 1.23633H5.98225C5.49351 1.23633 5.04895 1.48527 4.79307 1.90226C4.67456 2.0953 4.73505 2.34785 4.9281 2.46636Z" fill="#333333"/>
<path d="M13.4307 4.26072H12.7138C12.1707 4.27954 12.1711 5.06239 12.7138 5.08104H13.4307V5.79788C13.4495 6.34098 14.2324 6.34054 14.251 5.79788V5.08104H14.9679C15.511 5.06222 15.5105 4.27932 14.9679 4.26072H14.251V3.54388C14.2322 3.00078 13.4493 3.00122 13.4307 3.54388V4.26072Z" fill="#333333"/>
<path d="M26.9336 13.7461H24.5355V13.0253C24.5167 12.4822 23.7338 12.4827 23.7152 13.0253V13.7461H14.1023C13.5143 13.7461 13.0359 14.2245 13.0359 14.8125V21.538H3.58023C3.82189 21.205 3.96484 20.7939 3.96484 20.3496V8.67876C3.96484 8.36212 4.22242 8.10454 4.53906 8.10454H23.141C23.4577 8.10454 23.7152 8.36212 23.7152 8.67876V11.1113C23.734 11.6544 24.517 11.6539 24.5355 11.1113V8.67876C24.5355 7.9098 23.91 7.28422 23.141 7.28422H23.0934V6.92865C23.0746 6.38554 22.2917 6.38598 22.2731 6.92865V7.28422H5.40695V6.92865C5.38814 6.38554 4.60529 6.38598 4.58664 6.92865V7.28422H4.53906C3.7701 7.28422 3.14453 7.9098 3.14453 8.67876V20.3496C3.1512 21.3936 1.89055 21.9337 1.16118 21.1971C0.941336 20.9772 0.820312 20.6849 0.820312 20.3737V7.50407C0.8015 6.96097 0.0186484 6.9614 0 7.50407V20.3737C0 20.9039 0.206391 21.4024 0.581164 21.7771C0.955938 22.1519 1.45436 22.3583 1.98461 22.3583H13.0359V23.5669C13.0359 24.1549 13.5143 24.6333 14.1023 24.6333H23.1416L23.097 26.231C23.0909 26.4502 23.2241 26.6508 23.4285 26.73C23.6304 26.8088 23.8662 26.7518 24.0096 26.585L24.6815 25.8065L25.69 26.008C25.9048 26.0511 26.125 25.9533 26.2376 25.7652C26.3501 25.5771 26.332 25.3371 26.1925 25.168L25.7517 24.6334H26.9336C27.5216 24.6334 28 24.155 28 23.567V14.8126C28 14.2245 27.5216 13.7461 26.9336 13.7461ZM24.6704 24.9678C24.4874 24.931 24.2975 24.9961 24.1751 25.1377L23.9406 25.4094L23.986 23.7813L25.0222 25.038L24.6704 24.9678ZM27.1797 23.5669C27.1797 23.7026 27.0693 23.813 26.9336 23.813H25.0753L24.1086 22.6406C23.9694 22.4717 23.7456 22.4087 23.5389 22.4798C23.3321 22.5509 23.1946 22.738 23.1885 22.9567L23.1646 23.813H14.1023C13.9666 23.813 13.8562 23.7026 13.8562 23.5669V14.8126C13.8562 14.6769 13.9666 14.5665 14.1023 14.5665H26.9336C27.0693 14.5665 27.1797 14.6769 27.1797 14.8126V23.5669Z" fill="#333333"/>
<path d="M22.7765 18.0152C22.6254 17.8464 22.3663 17.8319 22.1973 17.9829C22.0285 18.1339 22.014 18.3932 22.165 18.562L22.3597 18.7797H20.9282V17.3482L21.1458 17.5429C21.3141 17.6935 21.5736 17.6798 21.725 17.5106C21.876 17.3417 21.8615 17.0824 21.6927 16.9314L20.8995 16.2221C20.6822 16.0276 20.3543 16.0276 20.1366 16.222L19.3434 16.9314C19.1745 17.0825 19.1601 17.3418 19.311 17.5106C19.462 17.6794 19.7213 17.6939 19.8902 17.5429L20.1078 17.3483V18.7798H18.6763L18.871 18.5622C19.022 18.3933 19.0075 18.134 18.8387 17.983C18.6697 17.832 18.4105 17.8465 18.2595 18.0153L17.55 18.8086C17.3557 19.026 17.3557 19.3538 17.5501 19.5714L18.2595 20.3647C18.4109 20.5339 18.6703 20.5475 18.8387 20.397C19.0075 20.2459 19.022 19.9867 18.871 19.8178L18.6764 19.6002H20.1079V21.0317L19.8903 20.837C19.7213 20.6861 19.4621 20.7006 19.3111 20.8694C19.1601 21.0382 19.1746 21.2975 19.3434 21.4486L20.1369 22.1582C20.3543 22.3524 20.6821 22.3523 20.8995 22.158L21.6928 21.4486C21.8616 21.2975 21.8761 21.0382 21.7251 20.8694C21.5741 20.7006 21.3149 20.6861 21.1459 20.837L20.9283 21.0317V19.6002H22.3598L22.1651 19.8178C22.0141 19.9867 22.0286 20.246 22.1975 20.397C22.3658 20.5476 22.6252 20.534 22.7766 20.3647L23.4861 19.5714C23.6806 19.3539 23.6806 19.0259 23.4861 18.8086L22.7765 18.0152Z" fill="#333333"/>
</svg>
