<svg xmlns="http://www.w3.org/2000/svg" width="20" height="20" viewBox="0 0 20 20" fill="none">
  <path fill-rule="evenodd" clip-rule="evenodd" d="M4.12734 1.875C4.14035 1.875 4.15341 1.875 4.16651 1.875L15.8723 1.875C16.4281 1.87498 16.9032 1.87495 17.283 1.92285C17.6857 1.97365 18.075 2.08775 18.3947 2.3877C18.72 2.69295 18.8493 3.0738 18.9061 3.47004C18.9583 3.83404 18.9582 4.28664 18.9582 4.80299L18.9582 5.4501C18.9582 5.85719 18.9582 6.20912 18.9278 6.50259C18.8951 6.81839 18.8236 7.11466 18.652 7.39911C18.4816 7.68142 18.2521 7.88633 17.9877 8.07003C17.7386 8.24308 17.4203 8.42225 17.0459 8.63296L14.5939 10.0133C14.0357 10.3275 13.8414 10.4406 13.7116 10.5533C13.4137 10.812 13.243 11.099 13.1628 11.4587C13.1286 11.6124 13.1248 11.806 13.1248 12.3941L13.1248 14.6708C13.1249 15.4219 13.1249 16.0595 13.0476 16.5496C12.9655 17.0709 12.7747 17.5708 12.2746 17.8835C11.786 18.1892 11.2478 18.1611 10.7247 18.0369C10.2209 17.9172 9.60006 17.6745 8.85514 17.3833L8.78274 17.355C8.4338 17.2186 8.12826 17.0991 7.88638 16.9743C7.62642 16.84 7.385 16.673 7.2003 16.4131C7.01351 16.1502 6.93863 15.8684 6.90524 15.5803C6.87479 15.3175 6.87481 15.0022 6.87484 14.6505L6.87484 12.3941C6.87484 11.806 6.87113 11.6124 6.83685 11.4587C6.75667 11.099 6.58602 10.812 6.28804 10.5533C6.15828 10.4406 5.96394 10.3275 5.40579 10.0133L2.95376 8.63296C2.57941 8.42225 2.26111 8.24308 2.01199 8.07003C1.74754 7.88633 1.51809 7.68142 1.34773 7.39911C1.17607 7.11466 1.10459 6.81839 1.07188 6.50259C1.04147 6.20912 1.04149 5.85719 1.04151 5.4501L1.04151 4.84555C1.04151 4.83131 1.04151 4.81712 1.04151 4.80297C1.04147 4.28663 1.04143 3.83403 1.09359 3.47004C1.15037 3.0738 1.27964 2.69295 1.60499 2.3877C1.9247 2.08775 2.31396 1.97365 2.7167 1.92285C3.09644 1.87495 3.57156 1.87498 4.12734 1.875ZM2.87314 3.16303C2.59509 3.1981 2.50667 3.25576 2.46026 3.2993C2.4195 3.33755 2.3657 3.40487 2.33095 3.64736C2.29301 3.91212 2.29151 4.2739 2.29151 4.84555V5.4204C2.29151 5.86558 2.29228 6.15231 2.31522 6.37379C2.33659 6.58005 2.37328 6.67923 2.41795 6.75326C2.46392 6.82943 2.54026 6.915 2.72512 7.04341C2.91988 7.1787 3.18597 7.32923 3.59145 7.55749L6.01897 8.92402C6.0417 8.93682 6.06409 8.94941 6.08614 8.96182C6.55173 9.22376 6.86882 9.40215 7.1075 9.60936C7.6003 10.0372 7.91648 10.5568 8.0569 11.1866C8.12514 11.4927 8.12502 11.8359 8.12486 12.3204C8.12485 12.3446 8.12484 12.3692 8.12484 12.3941V14.6187C8.12484 15.0121 8.12581 15.2542 8.14693 15.4364C8.16602 15.6011 8.19611 15.6565 8.21926 15.6891C8.24449 15.7246 8.29448 15.7782 8.45986 15.8636C8.63688 15.955 8.88074 16.0512 9.26586 16.2017C10.0667 16.5148 10.6054 16.7238 11.0135 16.8207C11.4124 16.9154 11.5438 16.8663 11.6118 16.8238C11.6684 16.7884 11.7559 16.7164 11.8129 16.355C11.873 15.9738 11.8748 15.4362 11.8748 14.6187V12.3941C11.8748 12.3692 11.8748 12.3446 11.8748 12.3204C11.8747 11.8359 11.8745 11.4927 11.9428 11.1866C12.0832 10.5568 12.3994 10.0372 12.8922 9.60936C13.1309 9.40215 13.4479 9.22376 13.9135 8.96184C13.9356 8.94942 13.958 8.93682 13.9807 8.92402L16.4082 7.55749C16.8137 7.32923 17.0798 7.1787 17.2746 7.04341C17.4594 6.915 17.5358 6.82943 17.5817 6.75326C17.6264 6.67923 17.6631 6.58005 17.6845 6.37379C17.7074 6.15231 17.7082 5.86558 17.7082 5.4204V4.84555C17.7082 4.2739 17.7067 3.91212 17.6687 3.64736C17.634 3.40487 17.5802 3.33755 17.5394 3.2993C17.493 3.25576 17.4046 3.1981 17.1265 3.16303C16.8344 3.12617 16.439 3.125 15.8332 3.125H4.16651C3.56065 3.125 3.16529 3.12617 2.87314 3.16303Z" fill="#333333"/>
</svg>