<svg width="16" height="18" viewBox="0 0 16 18" fill="none" xmlns="http://www.w3.org/2000/svg">
    <path
        d="M8.00004 14.3534C8.38726 14.3534 8.75861 14.5072 9.03241 14.781C9.30622 15.0548 9.46004 15.4261 9.46004 15.8134C9.46004 16.2006 9.30622 16.5719 9.03241 16.8457C8.75861 17.1195 8.38726 17.2734 8.00004 17.2734C7.61282 17.2734 7.24147 17.1195 6.96766 16.8457C6.69386 16.5719 6.54004 16.2006 6.54004 15.8134C6.54004 15.4261 6.69386 15.0548 6.96766 14.781C7.24147 14.5072 7.61282 14.3534 8.00004 14.3534ZM8.00004 7.54002C8.38726 7.54002 8.75861 7.69384 9.03241 7.96764C9.30622 8.24144 9.46004 8.6128 9.46004 9.00002C9.46004 9.38723 9.30622 9.75859 9.03241 10.0324C8.75861 10.3062 8.38726 10.46 8.00004 10.46C7.61282 10.46 7.24147 10.3062 6.96766 10.0324C6.69386 9.75859 6.54004 9.38723 6.54004 9.00002C6.54004 8.6128 6.69386 8.24144 6.96766 7.96764C7.24147 7.69384 7.61282 7.54002 8.00004 7.54002ZM8.00004 0.726685C8.38726 0.726685 8.75861 0.880506 9.03241 1.15431C9.30622 1.42811 9.46004 1.79947 9.46004 2.18668C9.46004 2.5739 9.30622 2.94526 9.03241 3.21906C8.75861 3.49286 8.38726 3.64668 8.00004 3.64668C7.61282 3.64668 7.24147 3.49286 6.96766 3.21906C6.69386 2.94526 6.54004 2.5739 6.54004 2.18668C6.54004 1.79947 6.69386 1.42811 6.96766 1.15431C7.24147 0.880506 7.61282 0.726685 8.00004 0.726685Z"
        fill="#333333" />
</svg>