<svg xmlns="http://www.w3.org/2000/svg" viewBox="0 0 17 17" fill="none">
  <g clip-path="url(#clip0_966_8520)">
    <path d="M3.78268 9.21724C3.58742 9.02198 3.58742 8.7054 3.78268 8.51014L5.11601 7.1768C5.31127 6.98154 5.62786 6.98154 5.82312 7.1768C6.01838 7.37206 6.01838 7.68865 5.82312 7.88391L5.34334 8.36369L10.1362 8.36369C10.4124 8.36369 10.6362 8.58755 10.6362 8.86369C10.6362 9.13983 10.4124 9.36369 10.1362 9.36369L5.34334 9.36369L5.82312 9.84347C6.01838 10.0387 6.01838 10.3553 5.82312 10.5506C5.62786 10.7458 5.31127 10.7458 5.11601 10.5506L3.78268 9.21724Z" fill="#506031"/>
    <path fill-rule="evenodd" clip-rule="evenodd" d="M9.43313 1.69702H10.173C11.0847 1.69701 11.8196 1.697 12.3975 1.7747C12.9976 1.85538 13.5029 2.02798 13.9041 2.42926C14.3054 2.83053 14.478 3.33578 14.5587 3.93585C14.6364 4.51383 14.6364 5.24872 14.6364 6.16044V11.5669C14.6364 12.4787 14.6364 13.2135 14.5587 13.7915C14.478 14.3916 14.3054 14.8968 13.9041 15.2981C13.5029 15.6994 12.9976 15.872 12.3975 15.9527C11.8196 16.0304 11.0847 16.0304 10.173 16.0304H9.43313C8.5214 16.0304 7.78652 16.0304 7.20854 15.9527C6.60847 15.872 6.10322 15.6994 5.70194 15.2981C5.43598 15.0322 5.27002 14.7199 5.16493 14.3636C4.53068 14.3627 4.00227 14.3558 3.57416 14.2982C3.06485 14.2297 2.6233 14.0815 2.27083 13.7291C1.91837 13.3766 1.77018 12.9351 1.70171 12.4258C1.6362 11.9385 1.63622 11.3214 1.63623 10.5662V7.16123C1.63622 6.40602 1.6362 5.78885 1.70171 5.30161C1.77018 4.79231 1.91837 4.35075 2.27083 3.99829C2.6233 3.64583 3.06485 3.49764 3.57416 3.42917C4.00227 3.37161 4.53068 3.36463 5.16493 3.3638C5.27002 3.00743 5.43598 2.69521 5.70194 2.42926C6.10322 2.02798 6.60847 1.85538 7.20854 1.7747C7.78652 1.697 8.5214 1.69701 9.43313 1.69702ZM4.97088 12.1998C4.97327 12.6295 4.98036 13.0165 5.00479 13.3631C4.44847 13.3609 4.0349 13.3512 3.7074 13.3071C3.30899 13.2536 3.11363 13.1577 2.97794 13.022C2.84225 12.8863 2.74636 12.6909 2.69279 12.2925C2.63729 11.8797 2.63623 11.3302 2.63623 10.5304V7.19702C2.63623 6.39721 2.63729 5.84766 2.69279 5.43486C2.74636 5.03645 2.84225 4.84109 2.97794 4.7054C3.11363 4.5697 3.30899 4.47381 3.7074 4.42025C4.0349 4.37622 4.44847 4.36645 5.00479 4.3643C4.98036 4.71084 4.97327 5.09788 4.97088 5.52757C4.96934 5.80371 5.19195 6.02881 5.46808 6.03035C5.74422 6.03189 5.96932 5.80928 5.97086 5.53314C5.97492 4.80414 5.99385 4.28742 6.06588 3.89525C6.13529 3.51738 6.24675 3.29866 6.40905 3.13636C6.59356 2.95185 6.85261 2.83156 7.34179 2.76579C7.84536 2.69808 8.51277 2.69702 9.46971 2.69702H10.1364C11.0933 2.69702 11.7607 2.69808 12.2643 2.76579C12.7535 2.83156 13.0125 2.95185 13.197 3.13636C13.3815 3.32087 13.5018 3.57992 13.5676 4.0691C13.6353 4.57267 13.6364 5.24008 13.6364 6.19702V11.5304C13.6364 12.4873 13.6353 13.1547 13.5676 13.6583C13.5018 14.1475 13.3815 14.4065 13.197 14.591C13.0125 14.7755 12.7535 14.8958 12.2643 14.9616C11.7607 15.0293 11.0933 15.0304 10.1364 15.0304H9.46971C8.51276 15.0304 7.84536 15.0293 7.34179 14.9616C6.85261 14.8958 6.59356 14.7755 6.40905 14.591C6.24675 14.4287 6.13529 14.21 6.06588 13.8321C5.99385 13.44 5.97492 12.9232 5.97086 12.1942C5.96932 11.9181 5.74422 11.6955 5.46808 11.697C5.19195 11.6986 4.96934 11.9237 4.97088 12.1998Z" fill="#506031"/>
  </g>
  <defs>
    <clipPath id="clip0_966_8520">
      <rect x="0.13623" y="0.86377" width="16" height="16" rx="5" fill="white"/>
    </clipPath>
  </defs>
</svg>