<svg width="40" height="40" viewBox="0 0 40 40" fill="none" xmlns="http://www.w3.org/2000/svg">
<path fill-rule="evenodd" clip-rule="evenodd" d="M29.08 2.91669C27.5826 2.91664 26.3339 2.9166 25.3426 3.04988C24.2962 3.19055 23.3516 3.5 22.5925 4.25912C21.8333 5.01824 21.5239 5.9629 21.3832 7.00923C21.2499 8.00052 21.25 9.2492 21.25 10.7466V10.92C21.25 12.4175 21.2499 13.6662 21.3832 14.6575C21.5239 15.7038 21.8333 16.6485 22.5925 17.4076C23.3516 18.1667 24.2962 18.4762 25.3426 18.6168C26.3339 18.7501 27.5825 18.7501 29.08 18.75H29.2533C30.7508 18.7501 31.9995 18.7501 32.9908 18.6168C34.0372 18.4762 34.9818 18.1667 35.7409 17.4076C36.5 16.6485 36.8095 15.7038 36.9502 14.6575C37.0835 13.6662 37.0834 12.4175 37.0834 10.92V10.7467C37.0834 9.24923 37.0835 8.00053 36.9502 7.00923C36.8095 5.9629 36.5 5.01824 35.7409 4.25912C34.9818 3.5 34.0372 3.19055 32.9908 3.04988C31.9995 2.9166 30.7509 2.91664 29.2534 2.91669H29.08ZM24.3602 6.02689C24.5774 5.80969 24.9066 5.63099 25.6757 5.52758C26.4807 5.41935 27.56 5.41669 29.1667 5.41669C30.7734 5.41669 31.8526 5.41935 32.6577 5.52758C33.4268 5.63099 33.756 5.80969 33.9732 6.02689C34.1904 6.24408 34.3691 6.57324 34.4725 7.34235C34.5807 8.14741 34.5834 9.22667 34.5834 10.8334C34.5834 12.44 34.5807 13.5193 34.4725 14.3244C34.3691 15.0935 34.1904 15.4226 33.9732 15.6398C33.756 15.857 33.4268 16.0357 32.6577 16.1391C31.8526 16.2474 30.7734 16.25 29.1667 16.25C27.56 16.25 26.4807 16.2474 25.6757 16.1391C24.9066 16.0357 24.5774 15.857 24.3602 15.6398C24.143 15.4226 23.9643 15.0935 23.8609 14.3244C23.7527 13.5193 23.75 12.44 23.75 10.8334C23.75 9.22667 23.7527 8.14741 23.8609 7.34235C23.9643 6.57324 24.143 6.24408 24.3602 6.02689Z" fill="#999999"/>
<path fill-rule="evenodd" clip-rule="evenodd" d="M10.7467 21.25C9.24925 21.25 8.00052 21.2499 7.00923 21.3832C5.9629 21.5239 5.01824 21.8333 4.25912 22.5925C3.5 23.3516 3.19055 24.2962 3.04988 25.3426C2.9166 26.3339 2.91664 27.5825 2.91669 29.08V29.2534C2.91664 30.7508 2.9166 31.9995 3.04988 32.9908C3.19055 34.0372 3.5 34.9818 4.25912 35.7409C5.01824 36.5 5.9629 36.8095 7.00923 36.9502C8.00053 37.0835 9.24923 37.0834 10.7467 37.0834H10.92C12.4175 37.0834 13.6662 37.0835 14.6575 36.9502C15.7038 36.8095 16.6485 36.5 17.4076 35.7409C18.1667 34.9818 18.4762 34.0372 18.6168 32.9908C18.7501 31.9995 18.7501 30.7509 18.75 29.2534V29.08C18.7501 27.5826 18.7501 26.3339 18.6168 25.3426C18.4762 24.2962 18.1667 23.3516 17.4076 22.5925C16.6485 21.8333 15.7038 21.5239 14.6575 21.3832C13.6662 21.2499 12.4175 21.25 10.9201 21.25H10.7467ZM6.02689 24.3602C6.24408 24.143 6.57324 23.9643 7.34235 23.8609C8.14741 23.7527 9.22667 23.75 10.8334 23.75C12.44 23.75 13.5193 23.7527 14.3244 23.8609C15.0935 23.9643 15.4226 24.143 15.6398 24.3602C15.857 24.5774 16.0357 24.9066 16.1391 25.6757C16.2474 26.4807 16.25 27.56 16.25 29.1667C16.25 30.7734 16.2474 31.8526 16.1391 32.6577C16.0357 33.4268 15.857 33.756 15.6398 33.9732C15.4226 34.1904 15.0935 34.3691 14.3244 34.4725C13.5193 34.5807 12.44 34.5834 10.8334 34.5834C9.22667 34.5834 8.14741 34.5807 7.34235 34.4725C6.57324 34.3691 6.24408 34.1904 6.02689 33.9732C5.80969 33.756 5.63099 33.4268 5.52758 32.6577C5.41935 31.8526 5.41669 30.7734 5.41669 29.1667C5.41669 27.56 5.41935 26.4807 5.52758 25.6757C5.63099 24.9066 5.80969 24.5774 6.02689 24.3602Z" fill="#999999"/>
<path fill-rule="evenodd" clip-rule="evenodd" d="M2.91669 10.8334C2.91669 6.4611 6.4611 2.91669 10.8334 2.91669C15.2056 2.91669 18.75 6.4611 18.75 10.8334C18.75 15.2056 15.2056 18.75 10.8334 18.75C6.4611 18.75 2.91669 15.2056 2.91669 10.8334ZM10.8334 5.41669C7.84182 5.41669 5.41669 7.84182 5.41669 10.8334C5.41669 13.8249 7.84182 16.25 10.8334 16.25C13.8249 16.25 16.25 13.8249 16.25 10.8334C16.25 7.84182 13.8249 5.41669 10.8334 5.41669Z" fill="#999999"/>
<path fill-rule="evenodd" clip-rule="evenodd" d="M21.25 29.1667C21.25 24.7944 24.7944 21.25 29.1667 21.25C33.5389 21.25 37.0834 24.7944 37.0834 29.1667C37.0834 33.5389 33.5389 37.0834 29.1667 37.0834C24.7944 37.0834 21.25 33.5389 21.25 29.1667ZM29.1667 23.75C26.1751 23.75 23.75 26.1751 23.75 29.1667C23.75 32.1582 26.1751 34.5834 29.1667 34.5834C32.1582 34.5834 34.5834 32.1582 34.5834 29.1667C34.5834 26.1751 32.1582 23.75 29.1667 23.75Z" fill="#999999"/>
</svg>
