<svg width="56" height="57" viewBox="0 0 56 57" fill="none" xmlns="http://www.w3.org/2000/svg">
<g clip-path="url(#clip0_2803_33742)">
<path d="M6.42768 34.8346L7.6355 39.3422C9.04541 44.6041 9.75037 47.235 11.3485 48.9413C12.6104 50.2886 14.2435 51.2315 16.0412 51.6507C18.318 52.1815 20.9489 51.4766 26.2108 50.0667C31.4727 48.6568 34.1036 47.9518 35.8099 46.3537C35.9515 46.221 36.0887 46.0843 36.2212 45.9437C35.4415 45.8782 34.655 45.7527 33.8557 45.5938C32.2314 45.2708 30.3014 44.7537 28.019 44.1421L27.7698 44.0753L27.712 44.0598C25.2285 43.3944 23.1536 42.8373 21.4968 42.2388C19.7545 41.6094 18.1714 40.8335 16.8271 39.5744C14.9746 37.8393 13.6782 35.5939 13.1018 33.122C12.6836 31.3282 12.8031 29.5693 13.1292 27.7457C13.4417 25.9982 14.0029 23.904 14.6752 21.3949L14.6753 21.3948L15.9222 16.7413L15.966 16.5776C11.4848 17.7848 9.12602 18.499 7.55302 19.9723C6.20572 21.2342 5.26286 22.8672 4.84369 24.665C4.31281 26.9418 5.01777 29.5727 6.42768 34.8346Z" fill="#CFD1CD"/>
<path fill-rule="evenodd" clip-rule="evenodd" d="M48.6013 25.5032L47.3934 30.0109C45.9835 35.2727 45.2786 37.9037 43.6804 39.61C42.4185 40.9573 40.7855 41.9001 38.9877 42.3193C38.7631 42.3717 38.535 42.412 38.3013 42.4409C36.1662 42.7042 33.5609 42.0061 28.8181 40.7353C23.5563 39.3254 20.9254 38.6205 19.219 37.0223C17.8717 35.7604 16.9289 34.1274 16.5097 32.3296C15.9788 30.0528 16.6838 27.4219 18.0937 22.16L19.3015 17.6524C19.5042 16.8958 19.6925 16.1932 19.8708 15.5403C20.9327 11.6529 21.6462 9.51419 23.0145 8.05326C24.2764 6.70596 25.9095 5.76311 27.7072 5.34393C29.984 4.81306 32.615 5.51801 37.8768 6.92792C43.1387 8.33783 45.7696 9.04279 47.4759 10.6409C48.8232 11.9028 49.7661 13.5359 50.1853 15.3336C50.7161 17.6104 50.0112 20.2414 48.6013 25.5032ZM25.7886 23.381C26.0388 22.4474 26.9984 21.8934 27.9319 22.1435L39.2011 25.1631C40.1346 25.4132 40.6887 26.3728 40.4385 27.3064C40.1884 28.24 39.2288 28.794 38.2952 28.5438L27.0261 25.5243C26.0925 25.2741 25.5385 24.3145 25.7886 23.381ZM23.976 30.1417C24.2261 29.2081 25.1857 28.6541 26.1193 28.9043L32.8808 30.716C33.8143 30.9662 34.3683 31.9257 34.1182 32.8593C33.868 33.7929 32.9085 34.3469 31.9749 34.0967L25.2134 32.285C24.2798 32.0349 23.7258 31.0753 23.976 30.1417Z" fill="#CFD1CD"/>
<rect x="38" y="1" width="18.3333" height="18.3333" rx="4.58333" fill="white"/>
<path fill-rule="evenodd" clip-rule="evenodd" d="M47.167 18.4167C43.2779 18.4167 41.3334 18.4167 40.1252 17.2086C38.917 16.0004 38.917 14.0558 38.917 10.1667C38.917 6.27766 38.917 4.33312 40.1252 3.12493C41.3334 1.91675 43.2779 1.91675 47.167 1.91675C51.0561 1.91675 53.0006 1.91675 54.2088 3.12493C55.417 4.33312 55.417 6.27766 55.417 10.1667C55.417 14.0558 55.417 16.0004 54.2088 17.2086C53.0006 18.4167 51.0561 18.4167 47.167 18.4167ZM42.5281 5.52781C43.065 4.99084 43.9356 4.99084 44.4726 5.52781L47.167 8.2222L49.8614 5.52781C50.3984 4.99084 51.269 4.99084 51.8059 5.52781C52.3429 6.06478 52.3429 6.93538 51.8059 7.47235L49.1115 10.1667L51.8059 12.8611C52.3429 13.3981 52.3429 14.2687 51.8059 14.8057C51.269 15.3427 50.3984 15.3427 49.8614 14.8057L47.167 12.1113L44.4726 14.8057C43.9356 15.3427 43.065 15.3427 42.5281 14.8057C41.9911 14.2687 41.9911 13.3981 42.5281 12.8611L45.2224 10.1667L42.5281 7.47235C41.9911 6.93538 41.9911 6.06478 42.5281 5.52781Z" fill="#CFD1CD"/>
</g>
<defs>
<clipPath id="clip0_2803_33742">
<rect width="56" height="56" fill="white" transform="translate(0 0.5)"/>
</clipPath>
</defs>
</svg>
