<svg width="44" height="49" viewBox="0 0 44 49" fill="none" xmlns="http://www.w3.org/2000/svg">
<path d="M37.0833 11.3815H27.1553V1.42065C27.6239 1.81421 36.6127 10.8467 37.0833 11.3815Z" fill="#CFD1CD"/>
<path d="M25.7496 14.194C24.9724 14.194 24.3433 13.5649 24.3433 12.7877V0.5H4.29036C1.95225 0.5 0.0566406 2.39561 0.0566406 4.73372V39.5935C0.0566406 41.9232 1.94569 43.8122 4.27536 43.8122H22.5977C21.8974 42.2438 21.5084 40.5075 21.5084 38.6813C21.5084 31.7176 27.1718 26.0514 34.1317 26.0514C35.4901 26.0514 36.798 26.267 38.0251 26.6654V14.194H25.7496ZM7.32222 6.21309H18.4315C19.2078 6.21309 19.8378 6.84308 19.8378 7.61933C19.8378 8.39651 19.2078 9.02557 18.4315 9.02557H7.32222C6.54597 9.02557 5.91598 8.39651 5.91598 7.61933C5.91598 6.84308 6.54597 6.21309 7.32222 6.21309ZM7.32222 11.838H18.4315C19.2078 11.838 19.8378 12.468 19.8378 13.2443C19.8378 14.0215 19.2078 14.6505 18.4315 14.6505H7.32222C6.54597 14.6505 5.91598 14.0215 5.91598 13.2443C5.91598 12.468 6.54597 11.838 7.32222 11.838ZM23.7284 25.9004H7.32222C6.54597 25.9004 5.91598 25.2714 5.91598 24.4942C5.91598 23.718 6.54597 23.088 7.32222 23.088H23.7284C24.5046 23.088 25.1346 23.718 25.1346 24.4942C25.1346 25.2714 24.5046 25.9004 23.7284 25.9004ZM29.3533 20.2755H7.32222C6.54597 20.2755 5.91598 19.6464 5.91598 18.8692C5.91598 18.093 6.54597 17.463 7.32222 17.463H29.3533C30.1296 17.463 30.7596 18.093 30.7596 18.8692C30.7596 19.6464 30.1296 20.2755 29.3533 20.2755Z" fill="#CFD1CD"/>
<path d="M34.1312 28.8643C28.7218 28.8643 24.3203 33.2686 24.3203 38.6817C24.3203 44.0957 28.7218 48.5001 34.1312 48.5001C39.5424 48.5001 43.9439 44.0957 43.9439 38.6817C43.9439 33.2686 39.5424 28.8643 34.1312 28.8643ZM37.8999 40.4601C38.4483 41.0095 38.4483 41.9001 37.8999 42.4495C37.3505 42.9979 36.4599 42.9979 35.9105 42.4495L34.1321 40.6711L32.3537 42.4495C31.8053 42.9988 30.9137 42.9979 30.3653 42.4495C29.8159 41.9001 29.8159 41.0095 30.3653 40.4601L32.1437 38.6817L30.3653 36.9033C29.8159 36.3548 29.8159 35.4642 30.3653 34.9148C30.9146 34.3655 31.8053 34.3655 32.3537 34.9148L34.1227 36.6839L34.1321 36.6933L35.9105 34.9148C36.4599 34.3655 37.3505 34.3655 37.8999 34.9148C38.4483 35.4642 38.4483 36.3548 37.8999 36.9033L36.1215 38.6817L37.8999 40.4601Z" fill="#CFD1CD"/>
</svg>
