<svg width="32" height="28" viewBox="0 0 32 28" fill="none" xmlns="http://www.w3.org/2000/svg">
<path fill-rule="evenodd" clip-rule="evenodd" d="M22.9181 27.7228C20.92 26.5739 19.5714 24.4163 19.5714 21.9493C19.5714 18.281 22.5542 15.2963 26.2199 15.2963C28.6999 15.2963 30.8668 16.6613 32.01 18.6797V9.42584C32.01 8.21267 31.528 7.0492 30.6702 6.19136C29.8124 5.33352 28.6489 4.85159 27.4357 4.85159H19.2341C18.9309 4.85132 18.6402 4.73067 18.426 4.51615L15.192 1.28368C14.8735 0.964835 14.4954 0.711853 14.0792 0.539184C13.6629 0.366514 13.2167 0.27754 12.7661 0.277344H4.56448C3.35132 0.277344 2.18784 0.759272 1.33 1.61711C0.472163 2.47495 -0.00976562 3.63843 -0.00976562 4.85159V23.1486C-0.00976562 24.3617 0.472163 25.5252 1.33 26.3831C2.18784 27.2409 3.35132 27.7228 4.56448 27.7228H22.9181ZM28.7739 24.5026C29.1456 24.1303 29.1456 23.5267 28.7739 23.1544L27.5687 21.9493L28.7739 20.7441C29.1456 20.3724 29.1456 19.7689 28.7739 19.3966C28.4016 19.0243 27.7981 19.0243 27.4258 19.3966L26.2206 20.6018L26.2142 20.5954L25.0154 19.3966C24.6437 19.0243 24.0402 19.0243 23.6679 19.3966C23.2956 19.7689 23.2956 20.3724 23.6679 20.7441L24.8731 21.9493L23.6679 23.1544C23.2956 23.5267 23.2956 24.1303 23.6679 24.5026C24.0396 24.8742 24.6437 24.8749 25.0154 24.5026L26.2206 23.2974L27.4258 24.5026C27.7981 24.8742 28.4016 24.8742 28.7739 24.5026Z" fill="#999999"/>
</svg>
