<svg xmlns="http://www.w3.org/2000/svg" width="16" height="16" viewBox="0 0 16 16" fill="none">
  <path fill-rule="evenodd" clip-rule="evenodd" d="M9.39885 1.59404C10.4132 0.579737 12.0577 0.579737 13.072 1.59404C14.0863 2.60835 14.0863 4.25286 13.072 5.26716L8.00929 10.3298C7.72396 10.6152 7.54971 10.7895 7.35549 10.941C7.12667 11.1194 6.87909 11.2724 6.61713 11.3973C6.39478 11.5033 6.16098 11.5812 5.77814 11.7088L3.99637 12.3027L3.56859 12.4453C3.18569 12.5729 2.76354 12.4733 2.47815 12.1879C2.19275 11.9025 2.09309 11.4803 2.22073 11.0974L2.95724 8.88788C3.08483 8.50503 3.16275 8.27123 3.26872 8.04888C3.39356 7.78692 3.54658 7.53933 3.72505 7.31051C3.87654 7.1163 4.05081 6.94204 4.33618 6.65671L9.39885 1.59404ZM3.9733 11.2563L3.40972 10.6927L3.89534 9.23587C4.03672 8.8117 4.09512 8.63924 4.17144 8.4791C4.26504 8.2827 4.37976 8.09709 4.51356 7.92554C4.62266 7.78566 4.7508 7.6563 5.06696 7.34015L8.99427 3.41283C9.15638 3.81949 9.43066 4.3103 9.89318 4.77283C10.3557 5.23535 10.8465 5.50963 11.2532 5.67174L7.32586 9.59905C7.00971 9.91521 6.88035 10.0433 6.74047 10.1524C6.56892 10.2863 6.38331 10.401 6.18691 10.4946C6.02677 10.5709 5.85431 10.6293 5.43015 10.7707L3.9733 11.2563ZM12.05 4.87492C11.9674 4.85679 11.8642 4.82953 11.7469 4.78881C11.4242 4.67686 10.9997 4.46517 10.6003 4.06572C10.2008 3.66627 9.98915 3.24182 9.8772 2.91914C9.83648 2.80178 9.80922 2.69856 9.79109 2.61601L10.106 2.30115C10.7297 1.67737 11.7411 1.67737 12.3649 2.30115C12.9886 2.92493 12.9886 3.93628 12.3649 4.56006L12.05 4.87492ZM2.16603 14.6666C2.16603 14.3905 2.38989 14.1666 2.66603 14.1666H13.3327V15.1666H2.66603C2.38989 15.1666 2.16603 14.9428 2.16603 14.6666Z" fill="#333333"/>
</svg>