<svg width="18" height="18" viewBox="0 0 18 18" fill="none" xmlns="http://www.w3.org/2000/svg">
<path fill-rule="evenodd" clip-rule="evenodd" d="M8.99988 6.1875C7.44658 6.1875 6.18738 7.4467 6.18738 9C6.18738 10.5533 7.44658 11.8125 8.99988 11.8125C10.5532 11.8125 11.8124 10.5533 11.8124 9C11.8124 7.4467 10.5532 6.1875 8.99988 6.1875ZM7.31238 9C7.31238 8.06802 8.0679 7.3125 8.99988 7.3125C9.93186 7.3125 10.6874 8.06802 10.6874 9C10.6874 9.93198 9.93186 10.6875 8.99988 10.6875C8.0679 10.6875 7.31238 9.93198 7.31238 9Z" fill="#1C274C"/>
<path fill-rule="evenodd" clip-rule="evenodd" d="M8.98093 0.9375C8.64759 0.937495 8.36931 0.93749 8.14085 0.953078C7.90302 0.969304 7.67838 1.00429 7.46059 1.0945C6.95522 1.30383 6.5537 1.70535 6.34437 2.21072C6.23539 2.47381 6.20588 2.75109 6.19461 3.05247C6.18555 3.29474 6.06328 3.49688 5.88284 3.60106C5.7024 3.70523 5.46621 3.71005 5.25188 3.59676C4.98523 3.45583 4.73034 3.34275 4.448 3.30557C3.90567 3.23418 3.35719 3.38114 2.92322 3.71414C2.7362 3.85765 2.59358 4.0347 2.46062 4.23255C2.33289 4.42261 2.19375 4.66361 2.02708 4.9523L2.00814 4.98511C1.84147 5.27379 1.70232 5.51478 1.60159 5.72042C1.49673 5.9345 1.41471 6.14654 1.38394 6.38026C1.31254 6.92259 1.4595 7.47107 1.7925 7.90504C1.96584 8.13094 2.19117 8.29512 2.4465 8.45555C2.65184 8.58457 2.76579 8.79158 2.76577 8.99999C2.76576 9.20837 2.65182 9.41535 2.44651 9.54435C2.19115 9.7048 1.96578 9.86899 1.79243 10.0949C1.45943 10.5289 1.31246 11.0774 1.38386 11.6197C1.41463 11.8534 1.49666 12.0654 1.60152 12.2795C1.70225 12.4852 1.84139 12.7262 2.00806 13.0148L2.02701 13.0476C2.19368 13.3363 2.33281 13.5773 2.46054 13.7674C2.59351 13.9652 2.73613 14.1423 2.92315 14.2858C3.35712 14.6188 3.9056 14.7658 4.44793 14.6944C4.73025 14.6572 4.98513 14.5441 5.25176 14.4032C5.46612 14.2899 5.70234 14.2947 5.88281 14.3989C6.06326 14.5031 6.18555 14.7053 6.19461 14.9476C6.20588 15.2489 6.2354 15.5262 6.34437 15.7893C6.5537 16.2947 6.95522 16.6962 7.46059 16.9055C7.67838 16.9957 7.90302 17.0307 8.14085 17.0469C8.36931 17.0625 8.64758 17.0625 8.98093 17.0625H9.01882C9.35216 17.0625 9.63044 17.0625 9.8589 17.0469C10.0967 17.0307 10.3214 16.9957 10.5392 16.9055C11.0445 16.6962 11.446 16.2947 11.6554 15.7893C11.7644 15.5262 11.7939 15.2489 11.8051 14.9475C11.8142 14.7052 11.9365 14.5031 12.1169 14.3989C12.2973 14.2947 12.5336 14.2899 12.7479 14.4032C13.0146 14.5441 13.2694 14.6572 13.5517 14.6943C14.0941 14.7657 14.6426 14.6188 15.0765 14.2858C15.2635 14.1423 15.4062 13.9652 15.5391 13.7673C15.6668 13.5773 15.806 13.3363 15.9726 13.0476L15.9916 13.0148C16.1583 12.7262 16.2974 12.4851 16.3981 12.2795C16.503 12.0654 16.585 11.8534 16.6158 11.6196C16.6872 11.0773 16.5402 10.5288 16.2072 10.0949C16.0339 9.86895 15.8085 9.70476 15.5532 9.54431C15.3479 9.41532 15.234 9.20834 15.234 8.99996C15.234 8.79161 15.3479 8.58466 15.5532 8.45568C15.8086 8.29522 16.034 8.13102 16.2073 7.90509C16.5403 7.47112 16.6873 6.92264 16.6159 6.38031C16.5851 6.14659 16.5031 5.93455 16.3982 5.72048C16.2975 5.51484 16.1584 5.27387 15.9917 4.98522L15.9728 4.95238C15.8061 4.66369 15.6669 4.42266 15.5392 4.2326C15.4062 4.03475 15.2636 3.8577 15.0766 3.71419C14.6426 3.38119 14.0941 3.23423 13.5518 3.30563C13.2695 3.3428 13.0146 3.45586 12.748 3.59679C12.5336 3.71009 12.2974 3.70527 12.1169 3.60108C11.9365 3.49689 11.8142 3.29473 11.8051 3.05243C11.7939 2.75106 11.7643 2.4738 11.6554 2.21072C11.446 1.70535 11.0445 1.30383 10.5392 1.0945C10.3214 1.00429 10.0967 0.969304 9.8589 0.953078C9.63043 0.93749 9.35216 0.937495 9.01881 0.9375H8.98093ZM7.89111 2.13386C7.94897 2.10989 8.03688 2.08779 8.21743 2.07547C8.40303 2.06281 8.64272 2.0625 8.99987 2.0625C9.35702 2.0625 9.59672 2.06281 9.78231 2.07547C9.96286 2.08779 10.0508 2.10989 10.1086 2.13386C10.3384 2.22901 10.5209 2.41152 10.616 2.64123C10.646 2.71369 10.6709 2.82665 10.6809 3.09448C10.7031 3.68876 11.0099 4.26097 11.5544 4.57536C12.099 4.88976 12.7479 4.8693 13.2737 4.59141C13.5106 4.46617 13.6209 4.43124 13.6987 4.421C13.9452 4.38855 14.1945 4.45535 14.3917 4.60671C14.4414 4.64484 14.5045 4.70992 14.6055 4.86012C14.7092 5.01452 14.8293 5.22195 15.0079 5.53125C15.1865 5.84055 15.3061 6.04829 15.3879 6.21535C15.4675 6.37787 15.4923 6.46505 15.5005 6.52715C15.533 6.77366 15.4662 7.02297 15.3148 7.22023C15.267 7.28246 15.1816 7.3605 14.9547 7.5031C14.4512 7.81947 14.109 8.37116 14.109 8.9999C14.1089 9.62871 14.4511 10.1805 14.9547 10.4969C15.1816 10.6395 15.267 10.7175 15.3147 10.7797C15.4661 10.977 15.5329 11.2263 15.5004 11.4728C15.4923 11.5349 15.4674 11.6221 15.3878 11.7846C15.306 11.9517 15.1864 12.1594 15.0079 12.4687C14.8293 12.778 14.7092 12.9854 14.6054 13.1398C14.5045 13.29 14.4414 13.3551 14.3917 13.3932C14.1944 13.5446 13.9451 13.6114 13.6986 13.5789C13.6208 13.5687 13.5106 13.5338 13.2736 13.4086C12.7478 13.1307 12.0989 13.1102 11.5543 13.4247C11.0098 13.7391 10.7031 14.3112 10.6809 14.9055C10.6709 15.1733 10.646 15.2863 10.616 15.3588C10.5209 15.5885 10.3384 15.771 10.1086 15.8661C10.0508 15.8901 9.96286 15.9122 9.78231 15.9245C9.59672 15.9372 9.35702 15.9375 8.99987 15.9375C8.64272 15.9375 8.40303 15.9372 8.21743 15.9245C8.03688 15.9122 7.94897 15.8901 7.89111 15.8661C7.66139 15.771 7.47889 15.5885 7.38373 15.3588C7.35372 15.2863 7.32884 15.1733 7.31882 14.9055C7.2966 14.3112 6.98985 13.739 6.4453 13.4246C5.90075 13.1102 5.25184 13.1307 4.72606 13.4086C4.48912 13.5338 4.37885 13.5688 4.30109 13.579C4.05457 13.6115 3.80526 13.5447 3.608 13.3933C3.55832 13.3552 3.49521 13.2901 3.39427 13.1399C3.29051 12.9855 3.1704 12.7781 2.99182 12.4688C2.81324 12.1594 2.69366 11.9517 2.61183 11.7846C2.53222 11.6221 2.50741 11.5349 2.49924 11.4728C2.46679 11.2263 2.53359 10.977 2.68495 10.7798C2.7327 10.7175 2.81808 10.6395 3.04503 10.4969C3.54857 10.1805 3.89074 9.62882 3.89077 9.00005C3.89081 8.3712 3.54862 7.8194 3.04504 7.50299C2.81814 7.36042 2.73276 7.2824 2.68502 7.22018C2.53366 7.02292 2.46686 6.77361 2.49931 6.5271C2.50749 6.465 2.5323 6.37782 2.6119 6.2153C2.69373 6.04824 2.81332 5.8405 2.99189 5.5312C3.17047 5.2219 3.29058 5.01447 3.39435 4.86007C3.49529 4.70987 3.55839 4.64479 3.60808 4.60666C3.80534 4.4553 4.05465 4.3885 4.30116 4.42095C4.37893 4.43119 4.4892 4.46613 4.72618 4.59138C5.25193 4.86926 5.90081 4.88972 6.44533 4.57534C6.98986 4.26096 7.2966 3.68878 7.31882 3.09451C7.32884 2.82666 7.35372 2.7137 7.38373 2.64124C7.47888 2.41152 7.66139 2.22901 7.89111 2.13386Z" fill="#1C274C"/>
</svg>
