<svg width="18" height="18" viewBox="0 0 18 18" fill="none" xmlns="http://www.w3.org/2000/svg">
<path fill-rule="evenodd" clip-rule="evenodd" d="M7.73196 1.68751H10.268C10.4303 1.68741 10.5717 1.68732 10.7052 1.70864C11.2327 1.79287 11.6892 2.12186 11.9359 2.59563C11.9983 2.71555 12.0429 2.84971 12.0942 3.00371L12.1779 3.25488C12.1921 3.2974 12.1961 3.30943 12.1995 3.31891C12.3309 3.682 12.6714 3.92745 13.0574 3.93723C13.0675 3.93748 13.08 3.93753 13.125 3.93753H15.375C15.6857 3.93753 15.9375 4.18937 15.9375 4.50003C15.9375 4.81069 15.6857 5.06253 15.375 5.06253H2.62494C2.31428 5.06253 2.06244 4.81069 2.06244 4.50003C2.06244 4.18937 2.31428 3.93753 2.62494 3.93753H4.875C4.92004 3.93753 4.93247 3.93749 4.94261 3.93723C5.3286 3.92745 5.66912 3.68202 5.80046 3.31893C5.80391 3.30938 5.80788 3.29761 5.82212 3.25488L5.90583 3.00372C5.95705 2.84973 6.00168 2.71555 6.06413 2.59563C6.31084 2.12186 6.76729 1.79287 7.29476 1.70864C7.42827 1.68732 7.56967 1.68741 7.73196 1.68751ZM6.75605 3.93753C6.79468 3.86176 6.82892 3.78303 6.85837 3.70161C6.86731 3.67689 6.87609 3.65057 6.88735 3.61675L6.96221 3.39219C7.03058 3.18706 7.04633 3.14522 7.06195 3.11523C7.14418 2.95731 7.29633 2.84764 7.47216 2.81957C7.50555 2.81423 7.55021 2.81253 7.76645 2.81253H10.2336C10.4498 2.81253 10.4945 2.81423 10.5278 2.81957C10.7037 2.84764 10.8558 2.95731 10.9381 3.11523C10.9537 3.14522 10.9694 3.18705 11.0378 3.39219L11.1126 3.61662L11.1416 3.70163C11.1711 3.78304 11.2053 3.86177 11.244 3.93753H6.75605Z" fill="#1C274C"/>
<path d="M4.43626 6.33761C4.41559 6.02764 4.14756 5.79311 3.83759 5.81377C3.52761 5.83444 3.29308 6.10247 3.31375 6.41245L3.66133 11.6262C3.72546 12.5883 3.77725 13.3654 3.89873 13.9752C4.02503 14.6092 4.23984 15.1387 4.68354 15.5538C5.12724 15.9689 5.6699 16.1481 6.31089 16.2319C6.92741 16.3126 7.70622 16.3125 8.67039 16.3125H9.32956C10.2937 16.3125 11.0726 16.3126 11.6891 16.2319C12.3301 16.1481 12.8728 15.9689 13.3165 15.5538C13.7602 15.1387 13.975 14.6092 14.1013 13.9752C14.2228 13.3654 14.2745 12.5883 14.3387 11.6263L14.6863 6.41245C14.7069 6.10247 14.4724 5.83444 14.1624 5.81377C13.8524 5.79311 13.5844 6.02764 13.5637 6.33761L13.2188 11.5119C13.1514 12.5228 13.1034 13.2262 12.998 13.7554C12.8957 14.2688 12.7529 14.5405 12.5479 14.7323C12.3428 14.9242 12.0622 15.0485 11.5432 15.1164C11.0081 15.1864 10.3031 15.1875 9.29001 15.1875H8.70999C7.69686 15.1875 6.99185 15.1864 6.4568 15.1164C5.9378 15.0485 5.65718 14.9242 5.45212 14.7323C5.24706 14.5405 5.10431 14.2687 5.00205 13.7554C4.89663 13.2262 4.8486 12.5228 4.78121 11.5119L4.43626 6.33761Z" fill="#1C274C"/>
<path d="M7.06904 7.69032C7.37816 7.65941 7.6538 7.88494 7.68472 8.19406L8.05972 11.9441C8.09063 12.2532 7.8651 12.5288 7.55598 12.5597C7.24686 12.5906 6.97121 12.3651 6.9403 12.056L6.5653 8.306C6.53439 7.99688 6.75992 7.72123 7.06904 7.69032Z" fill="#1C274C"/>
<path d="M10.931 7.69032C11.2401 7.72123 11.4656 7.99688 11.4347 8.306L11.0597 12.056C11.0288 12.3651 10.7532 12.5906 10.444 12.5597C10.1349 12.5288 9.90939 12.2532 9.9403 11.9441L10.3153 8.19406C10.3462 7.88494 10.6219 7.65941 10.931 7.69032Z" fill="#1C274C"/>
</svg>
